<svg width="600" height="600" viewBox="0 0 600 600" fill="none" xmlns="http://www.w3.org/2000/svg">
<g clip-path="url(#clip0_35_2)">
<rect width="600" height="600" fill="black"/>
<path d="M301 510C350.849 510 397.936 500.535 434.056 483.466C467.094 467.854 505 438.407 505 392.5C505 346.593 467.094 317.146 434.056 301.534C397.936 284.465 350.849 275 301 275C251.151 275 204.064 284.465 167.944 301.534C134.906 317.146 97 346.593 97 392.5C97 438.407 134.906 467.854 167.944 483.466C204.064 500.535 251.151 510 301 510Z" fill="black" stroke="white" stroke-width="80"/>
<rect x="-71" y="207" width="696" height="235" fill="black"/>
<path d="M57.0256 -36.3636H187.636L298.432 233.807H303.545L414.341 -36.3636H544.952V400H442.253V131.96H438.631L333.801 397.23H268.176L163.347 130.469H159.724V400H57.0256V-36.3636Z" fill="white"/>
<rect width="600" height="50" fill="black"/>
</g>
<defs>
<clipPath id="clip0_35_2">
<rect width="600" height="600" fill="white"/>
</clipPath>
</defs>
</svg>
